<svg width="286" height="26" viewBox="0 0 286 26" fill="none" xmlns="http://www.w3.org/2000/svg">
<g clip-path="url(#clip0_2162_167721)">
<path d="M17.3978 17.2967L12.5004 14.0353H13.5468C16.038 14.0353 18.0618 12.0062 18.0618 9.5203C18.0618 7.0344 16.0433 5 13.5521 5H4.51682C2.02561 5 0.00183105 7.02378 0.00183105 9.51499V18.5503C0.00183105 19.3842 0.676424 20.0535 1.50506 20.0535C2.33369 20.0535 3.00828 19.3789 3.00828 18.5503V9.51499C3.00828 8.68636 3.68288 8.01176 4.51151 8.01176H13.5468C14.3754 8.01176 15.05 8.68636 15.05 9.51499C15.05 10.3436 14.3754 11.0182 13.5468 11.0182H7.52327C7.42235 11.0182 7.32143 11.0288 7.22582 11.0501C7.18863 11.0554 7.15676 11.0713 7.11958 11.082C7.06115 11.0979 7.00272 11.1138 6.94429 11.1351C6.9018 11.151 6.86993 11.1776 6.83275 11.1935C6.78494 11.2201 6.73182 11.2413 6.68933 11.2732C6.65215 11.2997 6.62028 11.3263 6.58841 11.3529C6.54591 11.3847 6.50342 11.4166 6.46092 11.4591C6.39187 11.5281 6.32813 11.6025 6.27501 11.6875C6.25908 11.7087 6.24845 11.7353 6.23783 11.7619C6.20065 11.8203 6.16347 11.884 6.13691 11.9478C6.11566 12.0009 6.10504 12.0487 6.0891 12.1018C6.07848 12.1443 6.06254 12.1868 6.05192 12.2293C6.03598 12.309 6.03067 12.394 6.02536 12.479C6.02536 12.4949 6.02536 12.5108 6.02536 12.5268C6.02536 12.6277 6.03598 12.7233 6.05723 12.8242C6.06785 12.872 6.08379 12.9145 6.09972 12.9623C6.11566 13.0101 6.12628 13.0579 6.14222 13.1057C6.16347 13.1535 6.19002 13.2013 6.21658 13.2492C6.23783 13.2863 6.25377 13.3288 6.28032 13.366C6.31751 13.4191 6.36 13.4722 6.40781 13.5201C6.42905 13.5413 6.44499 13.5679 6.46624 13.5891C6.53529 13.6582 6.61496 13.7219 6.69995 13.7803L15.7352 19.8039C15.9902 19.9738 16.2824 20.0588 16.5692 20.0588C17.0579 20.0588 17.5306 19.8251 17.8228 19.3895C18.2849 18.699 18.099 17.7641 17.4031 17.302L17.3978 17.2967Z" fill="black"/>
<path d="M31.6249 12.5256H26.3557C25.5217 12.5256 24.8525 13.2002 24.8525 14.0288C24.8525 14.8575 25.527 15.5321 26.3557 15.5321H31.6249C33.7018 15.5321 35.391 13.8429 35.391 11.766C35.391 9.68914 33.7018 8 31.6249 8H24.0982C22.0213 8 20.3322 9.68914 20.3322 11.766V16.281C20.3322 18.3579 22.0213 20.0471 24.0982 20.0471H33.8878C34.7217 20.0471 35.391 19.3725 35.391 18.5438C35.391 17.7152 34.7164 17.0406 33.8878 17.0406H24.0982C23.6839 17.0406 23.3439 16.7007 23.3439 16.2863V11.7713C23.3439 11.357 23.6839 11.0171 24.0982 11.0171H31.6249C32.0393 11.0171 32.3792 11.357 32.3792 11.7713C32.3792 12.1857 32.0393 12.5256 31.6249 12.5256Z" fill="black"/>
<path d="M48.9374 12.5256H43.6682C42.8342 12.5256 42.165 13.2002 42.165 14.0288C42.165 14.8575 42.8395 15.5321 43.6682 15.5321H48.9374C51.0143 15.5321 52.7035 13.8429 52.7035 11.766C52.7035 9.68914 51.0143 8 48.9374 8H41.4107C39.3338 8 37.6447 9.68914 37.6447 11.766V16.281C37.6447 18.3579 39.3338 20.0471 41.4107 20.0471H51.1949C52.0289 20.0471 52.6982 19.3725 52.6982 18.5438C52.6982 17.7152 52.0236 17.0406 51.1949 17.0406H41.4107C40.9964 17.0406 40.6564 16.7007 40.6564 16.2863V11.7713C40.6564 11.357 40.9964 11.0171 41.4107 11.0171H48.9374C49.3518 11.0171 49.6917 11.357 49.6917 11.7713C49.6917 12.1857 49.3518 12.5256 48.9374 12.5256Z" fill="black"/>
<path d="M74.5293 5C73.6953 5 73.026 5.67459 73.026 6.50323V14.03C73.026 15.6926 71.6768 17.0417 70.0143 17.0417C68.3517 17.0417 67.0025 15.6926 67.0025 14.03V6.50323C67.0025 5.66928 66.3279 5 65.4993 5C64.6706 5 63.996 5.67459 63.996 6.50323V14.03C63.996 15.6926 62.6469 17.0417 60.9843 17.0417C59.3217 17.0417 57.9725 15.6926 57.9725 14.03V6.50323C57.9725 5.66928 57.2979 5 56.4693 5C55.6407 5 54.9661 5.67459 54.9661 6.50323V14.03C54.9661 17.3498 57.6697 20.0535 60.9896 20.0535C62.7903 20.0535 64.3997 19.2567 65.5046 18.0032C66.6094 19.2567 68.2242 20.0535 70.0196 20.0535C73.3394 20.0535 76.0431 17.3498 76.0431 14.03V6.50323C76.0431 5.66928 75.3685 5 74.5399 5H74.5293Z" fill="black"/>
<path d="M89.5893 12.5256H84.32C83.4861 12.5256 82.8168 13.2002 82.8168 14.0288C82.8168 14.8575 83.4914 15.5321 84.32 15.5321H89.5893C91.6662 15.5321 93.3553 13.8429 93.3553 11.766C93.3553 9.68914 91.6662 8 89.5893 8H82.0625C79.9857 8 78.2965 9.68914 78.2965 11.766V16.281C78.2965 18.3579 79.9857 20.0471 82.0625 20.0471H91.8468C92.6807 20.0471 93.35 19.3725 93.35 18.5438C93.35 17.7152 92.6754 17.0406 91.8468 17.0406H82.0625C81.6482 17.0406 81.3083 16.7007 81.3083 16.2863V11.7713C81.3083 11.357 81.6482 11.0171 82.0625 11.0171H89.5893C90.0036 11.0171 90.3436 11.357 90.3436 11.7713C90.3436 12.1857 90.0036 12.5256 89.5893 12.5256Z" fill="black"/>
<path d="M106.148 17.0471H99.3697C98.9554 17.0471 98.6155 16.7071 98.6155 16.2928V6.50323C98.6155 5.66928 97.9409 5 97.1122 5C96.2836 5 95.609 5.67459 95.609 6.50323V16.2875C95.609 18.3644 97.2981 20.0535 99.375 20.0535H106.153C106.987 20.0535 107.656 19.3789 107.656 18.5503C107.656 17.7217 106.981 17.0471 106.153 17.0471H106.148Z" fill="black"/>
<path d="M120.539 17.0471H113.761C113.346 17.0471 113.006 16.7071 113.006 16.2928V6.50323C113.006 5.66928 112.332 5 111.503 5C110.675 5 110 5.67459 110 6.50323V16.2875C110 18.3644 111.689 20.0535 113.766 20.0535H120.544C121.378 20.0535 122.047 19.3789 122.047 18.5503C122.047 17.7217 121.372 17.0471 120.544 17.0471H120.539Z" fill="black"/>
<path fill-rule="evenodd" clip-rule="evenodd" d="M151.661 5.00781C152.4 5.00794 152.998 5.60726 152.998 6.3457V14.0791C152.998 17.3805 150.322 20.0574 147.021 20.0576C145.149 20.0576 143.478 19.196 142.382 17.8486C141.286 19.1959 139.615 20.0576 137.743 20.0576C134.442 20.0575 131.766 17.3805 131.766 14.0791V6.3457C131.766 5.60732 132.364 5.00803 133.103 5.00781C133.841 5.00781 134.441 5.60719 134.441 6.3457V14.0791C134.441 15.9035 135.919 17.3827 137.743 17.3828C139.541 17.3828 141.003 15.9462 141.045 14.1582C141.045 14.132 141.043 14.1054 141.043 14.0791V6.3457C141.043 5.60719 141.641 5.00781 142.38 5.00781L142.382 5.00879L142.385 5.00781C143.123 5.00815 143.722 5.6074 143.722 6.3457V14.0791C143.722 14.109 143.719 14.1391 143.719 14.1689C143.766 15.952 145.227 17.3828 147.021 17.3828C148.845 17.3826 150.324 15.9035 150.324 14.0791V6.3457C150.324 5.60722 150.923 5.00786 151.661 5.00781ZM187.898 5.00781C188.636 5.00781 189.234 5.60719 189.234 6.3457V16.3994C189.234 16.9422 189.675 17.3826 190.218 17.3828H197.179C197.917 17.3829 198.517 17.9823 198.517 18.7207C198.517 19.459 197.917 20.0575 197.179 20.0576H190.218C188.198 20.0574 186.561 18.419 186.561 16.3994V6.3457C186.561 5.60724 187.159 5.0079 187.898 5.00781ZM214.673 5.00781C215.411 5.00812 216.01 5.60738 216.01 6.3457V15.626C216.01 18.0732 214.025 20.0576 211.578 20.0576H204.62C202.6 20.0576 200.962 18.4192 200.962 16.3994V14.8535C200.962 12.8334 202.6 11.1953 204.62 11.1953H210.034C210.772 11.1955 211.371 11.7941 211.371 12.5322C211.371 13.2706 210.773 13.8699 210.034 13.8701H204.62C204.077 13.8701 203.637 14.3105 203.637 14.8535V16.3994C203.637 16.9423 204.077 17.3828 204.62 17.3828H211.578C212.548 17.3828 213.335 16.5963 213.335 15.626V6.3457C213.335 5.60719 213.934 5.00781 214.673 5.00781ZM166.836 8.01562C168.856 8.01569 170.494 9.65364 170.494 11.6738V16.3135C170.494 18.3337 168.856 19.9716 166.836 19.9717H159.103C157.083 19.9717 155.444 18.3337 155.444 16.3135V11.6738C155.445 9.6536 157.083 8.01562 159.103 8.01562H166.836ZM182.78 8.01562C183.519 8.01562 184.117 8.61511 184.117 9.35352C184.117 10.0918 183.519 10.6904 182.78 10.6904H176.593C176.05 10.6906 175.61 11.1309 175.609 11.6738V18.6348C175.609 19.3731 175.011 19.9717 174.273 19.9717C173.534 19.9716 172.936 19.3731 172.936 18.6348V11.6738C172.936 9.65384 174.573 8.01583 176.593 8.01562H182.78ZM159.103 10.6904C158.56 10.6904 158.119 11.1309 158.119 11.6738V16.3135C158.119 16.8565 158.56 17.2969 159.103 17.2969H166.836C167.379 17.2968 167.819 16.8564 167.819 16.3135V11.6738C167.819 11.1309 167.379 10.6905 166.836 10.6904H159.103Z" fill="black"/>
</g>
<rect x="232.471" y="5" width="1" height="16" fill="black" fill-opacity="0.5"/>
<path d="M259.371 6.148H260.847L254.943 11.638L261.657 19H260.145L254.187 12.34L251.883 14.482V19H250.785V6.148H251.883V13.204L259.371 6.148ZM262.966 6.148H268.186C271.03 6.148 272.47 7.372 272.47 9.838C272.47 12.304 271.03 13.546 268.168 13.546H264.064V19H262.966V6.148ZM264.064 7.12V12.574H268.114C269.23 12.574 270.04 12.34 270.58 11.89C271.084 11.44 271.354 10.756 271.354 9.838C271.354 8.92 271.084 8.254 270.58 7.822C270.04 7.354 269.212 7.12 268.114 7.12H264.064ZM274.536 6.148H275.634V19H274.536V6.148Z" fill="black" fill-opacity="0.75"/>
<defs>
<clipPath id="clip0_2162_167721">
<rect width="216.471" height="16" fill="white" transform="translate(0 5)"/>
</clipPath>
</defs>
</svg>
